<svg width="400" height="400" viewBox="0 0 400 400" xmlns="http://www.w3.org/2000/svg">
  <!-- Background blob shape -->
  <path fill="#3498db" d="M44.6,-76.2C58.9,-69.8,72.3,-59.3,79.9,-45.3C87.5,-31.3,89.3,-13.9,88.2,3C87.1,19.9,83.1,36.2,74.1,49.6C65.1,63,51.1,73.4,35.7,78.3C20.4,83.2,3.6,82.7,-12.9,79.1C-29.5,75.6,-45.9,69,-58.3,57.6C-70.7,46.2,-79.2,30,-83.3,12.3C-87.4,-5.4,-87.1,-24.6,-79.3,-39.7C-71.4,-54.8,-56,-65.8,-40.4,-71.5C-24.9,-77.2,-9.2,-77.6,4.7,-85.7C18.6,-93.9,37.2,-109.8,44.6,-76.2Z" transform="translate(200 200)" />
  
  <!-- Simple developer emoji representation -->
  <text x="200" y="230" font-family="Arial, sans-serif" font-size="120" text-anchor="middle">👨‍💻</text>
</svg>
